<mxfile host="app.diagrams.net" modified="2020-10-22T06:59:42.452Z" agent="5.0 (X11; Linux x86_64) AppleWebKit/537.36 (KHTML, like Gecko) Chrome/81.0.4044.138 YaBrowser/20.4.3.268 (beta) Yowser/2.5 Safari/537.36" etag="DxaYW50EB1NZ2IoHYVvJ" version="13.8.1" type="github" pages="4">
  <diagram id="n06ypPmstvN8-sdvfzmW" name="Клиент">
    <mxGraphModel dx="981" dy="539" grid="1" gridSize="10" guides="1" tooltips="1" connect="1" arrows="1" fold="1" page="1" pageScale="1" pageWidth="827" pageHeight="1169" math="0" shadow="0">
      <root>
        <mxCell id="0" />
        <mxCell id="1" parent="0" />
        <mxCell id="jBuOz1lgdOzFdynuTPel-1" value="СУБД" style="shape=umlActor;verticalLabelPosition=bottom;verticalAlign=top;html=1;outlineConnect=0;" parent="1" vertex="1">
          <mxGeometry x="850" y="330" width="30" height="60" as="geometry" />
        </mxCell>
        <mxCell id="jBuOz1lgdOzFdynuTPel-2" value="Изменение статуса бронирования" style="ellipse;whiteSpace=wrap;html=1;" parent="1" vertex="1">
          <mxGeometry x="663" y="430" width="121" height="60" as="geometry" />
        </mxCell>
        <mxCell id="jBuOz1lgdOzFdynuTPel-3" value="" style="endArrow=none;html=1;shadow=0;strokeColor=#000000;exitX=0.5;exitY=0;exitDx=0;exitDy=0;" parent="1" source="jBuOz1lgdOzFdynuTPel-2" target="jBuOz1lgdOzFdynuTPel-1" edge="1">
          <mxGeometry width="50" height="50" relative="1" as="geometry">
            <mxPoint x="800" y="530" as="sourcePoint" />
            <mxPoint x="850" y="480" as="targetPoint" />
          </mxGeometry>
        </mxCell>
        <mxCell id="jBuOz1lgdOzFdynuTPel-4" value="Добавить в счет" style="ellipse;whiteSpace=wrap;html=1;" parent="1" vertex="1">
          <mxGeometry x="615.25" y="280" width="120" height="60" as="geometry" />
        </mxCell>
        <mxCell id="jBuOz1lgdOzFdynuTPel-7" value="" style="endArrow=none;html=1;shadow=0;strokeColor=#000000;entryX=1;entryY=0.5;entryDx=0;entryDy=0;exitX=0;exitY=0.3333333333333333;exitDx=0;exitDy=0;exitPerimeter=0;" parent="1" source="jBuOz1lgdOzFdynuTPel-1" target="jBuOz1lgdOzFdynuTPel-4" edge="1">
          <mxGeometry width="50" height="50" relative="1" as="geometry">
            <mxPoint x="890" y="342.9658448392863" as="sourcePoint" />
            <mxPoint x="954.212505602806" y="227.23712219098934" as="targetPoint" />
          </mxGeometry>
        </mxCell>
        <mxCell id="jBuOz1lgdOzFdynuTPel-8" value="Клиент" style="shape=umlActor;verticalLabelPosition=bottom;verticalAlign=top;html=1;outlineConnect=0;" parent="1" vertex="1">
          <mxGeometry x="170" y="600" width="30" height="60" as="geometry" />
        </mxCell>
        <mxCell id="jBuOz1lgdOzFdynuTPel-9" value="Поставить оценку" style="ellipse;whiteSpace=wrap;html=1;shadow=0;" parent="1" vertex="1">
          <mxGeometry x="242" y="825" width="90" height="60" as="geometry" />
        </mxCell>
        <mxCell id="jBuOz1lgdOzFdynuTPel-10" style="edgeStyle=none;rounded=0;orthogonalLoop=1;jettySize=auto;html=1;dashed=1;dashPattern=1 1;" parent="1" source="jBuOz1lgdOzFdynuTPel-12" target="jBuOz1lgdOzFdynuTPel-13" edge="1">
          <mxGeometry relative="1" as="geometry" />
        </mxCell>
        <mxCell id="jBuOz1lgdOzFdynuTPel-11" style="edgeStyle=none;rounded=0;orthogonalLoop=1;jettySize=auto;html=1;dashed=1;dashPattern=1 1;" parent="1" source="jBuOz1lgdOzFdynuTPel-12" target="jBuOz1lgdOzFdynuTPel-9" edge="1">
          <mxGeometry relative="1" as="geometry" />
        </mxCell>
        <mxCell id="jBuOz1lgdOzFdynuTPel-12" value="Написать отзыв" style="ellipse;whiteSpace=wrap;html=1;" parent="1" vertex="1">
          <mxGeometry x="140" y="755" width="90" height="60" as="geometry" />
        </mxCell>
        <mxCell id="jBuOz1lgdOzFdynuTPel-13" value="Написать комментарий" style="ellipse;whiteSpace=wrap;html=1;" parent="1" vertex="1">
          <mxGeometry x="140" y="855" width="90" height="60" as="geometry" />
        </mxCell>
        <mxCell id="jBuOz1lgdOzFdynuTPel-14" value="&amp;lt;inc&amp;gt;" style="text;html=1;strokeColor=none;fillColor=none;align=center;verticalAlign=middle;whiteSpace=wrap;rounded=0;" parent="1" vertex="1">
          <mxGeometry x="230" y="795" width="40" height="20" as="geometry" />
        </mxCell>
        <mxCell id="jBuOz1lgdOzFdynuTPel-15" value="&amp;lt;inc&amp;gt;" style="text;html=1;strokeColor=none;fillColor=none;align=center;verticalAlign=middle;whiteSpace=wrap;rounded=0;" parent="1" vertex="1">
          <mxGeometry x="150" y="820" width="40" height="20" as="geometry" />
        </mxCell>
        <mxCell id="jBuOz1lgdOzFdynuTPel-36" value="Оплатить услугу" style="ellipse;whiteSpace=wrap;html=1;" parent="1" vertex="1">
          <mxGeometry x="367" y="240" width="120" height="60" as="geometry" />
        </mxCell>
        <mxCell id="jBuOz1lgdOzFdynuTPel-47" style="edgeStyle=none;rounded=0;orthogonalLoop=1;jettySize=auto;html=1;entryX=0.107;entryY=0.89;entryDx=0;entryDy=0;entryPerimeter=0;dashed=1;dashPattern=1 1;" parent="1" source="jBuOz1lgdOzFdynuTPel-50" target="jBuOz1lgdOzFdynuTPel-51" edge="1">
          <mxGeometry relative="1" as="geometry" />
        </mxCell>
        <mxCell id="jBuOz1lgdOzFdynuTPel-49" style="edgeStyle=none;rounded=0;orthogonalLoop=1;jettySize=auto;html=1;dashed=1;dashPattern=1 1;" parent="1" source="jBuOz1lgdOzFdynuTPel-50" target="jBuOz1lgdOzFdynuTPel-36" edge="1">
          <mxGeometry relative="1" as="geometry" />
        </mxCell>
        <mxCell id="jBuOz1lgdOzFdynuTPel-50" value="Воспользоваться доп. услугой" style="ellipse;whiteSpace=wrap;html=1;" parent="1" vertex="1">
          <mxGeometry x="160" y="410" width="140" height="70" as="geometry" />
        </mxCell>
        <mxCell id="jBuOz1lgdOzFdynuTPel-51" value="Выбрать услугу" style="ellipse;whiteSpace=wrap;html=1;" parent="1" vertex="1">
          <mxGeometry x="60" y="180" width="140" height="70" as="geometry" />
        </mxCell>
        <mxCell id="jBuOz1lgdOzFdynuTPel-55" value="&amp;lt;inc&amp;gt;" style="text;html=1;strokeColor=none;fillColor=none;align=center;verticalAlign=middle;whiteSpace=wrap;rounded=0;" parent="1" vertex="1">
          <mxGeometry x="150" y="330" width="35" height="20" as="geometry" />
        </mxCell>
        <mxCell id="jBuOz1lgdOzFdynuTPel-56" value="&amp;lt;inc&amp;gt;" style="text;html=1;strokeColor=none;fillColor=none;align=center;verticalAlign=middle;whiteSpace=wrap;rounded=0;" parent="1" vertex="1">
          <mxGeometry x="300" y="325" width="40" height="20" as="geometry" />
        </mxCell>
        <mxCell id="jBuOz1lgdOzFdynuTPel-60" value="&amp;lt;inc&amp;gt;" style="text;html=1;strokeColor=none;fillColor=none;align=center;verticalAlign=middle;whiteSpace=wrap;rounded=0;" parent="1" vertex="1">
          <mxGeometry x="770" y="410" width="40" height="20" as="geometry" />
        </mxCell>
        <mxCell id="jBuOz1lgdOzFdynuTPel-61" value="&amp;lt;inc&amp;gt;" style="text;html=1;strokeColor=none;fillColor=none;align=center;verticalAlign=middle;whiteSpace=wrap;rounded=0;" parent="1" vertex="1">
          <mxGeometry x="750" y="325" width="40" height="20" as="geometry" />
        </mxCell>
        <mxCell id="jBuOz1lgdOzFdynuTPel-63" value="&amp;lt;inc&amp;gt;" style="text;html=1;strokeColor=none;fillColor=none;align=center;verticalAlign=middle;whiteSpace=wrap;rounded=0;" parent="1" vertex="1">
          <mxGeometry x="527" y="270" width="30" height="25" as="geometry" />
        </mxCell>
        <mxCell id="jBuOz1lgdOzFdynuTPel-66" value="" style="endArrow=none;html=1;exitX=0.5;exitY=0;exitDx=0;exitDy=0;exitPerimeter=0;entryX=0.5;entryY=1;entryDx=0;entryDy=0;" parent="1" source="jBuOz1lgdOzFdynuTPel-8" target="jBuOz1lgdOzFdynuTPel-50" edge="1">
          <mxGeometry width="50" height="50" relative="1" as="geometry">
            <mxPoint x="210" y="630" as="sourcePoint" />
            <mxPoint x="270" y="300" as="targetPoint" />
          </mxGeometry>
        </mxCell>
        <mxCell id="jBuOz1lgdOzFdynuTPel-69" value="" style="endArrow=none;html=1;" parent="1" source="jBuOz1lgdOzFdynuTPel-8" target="jBuOz1lgdOzFdynuTPel-12" edge="1">
          <mxGeometry width="50" height="50" relative="1" as="geometry">
            <mxPoint x="207.86" y="689.4708876808731" as="sourcePoint" />
            <mxPoint x="352.1415928072471" y="794.9973642879258" as="targetPoint" />
          </mxGeometry>
        </mxCell>
        <mxCell id="jBuOz1lgdOzFdynuTPel-71" style="edgeStyle=orthogonalEdgeStyle;rounded=0;orthogonalLoop=1;jettySize=auto;html=1;exitX=0.25;exitY=1;exitDx=0;exitDy=0;entryX=0.5;entryY=1;entryDx=0;entryDy=0;" parent="1" source="jBuOz1lgdOzFdynuTPel-63" target="jBuOz1lgdOzFdynuTPel-63" edge="1">
          <mxGeometry relative="1" as="geometry" />
        </mxCell>
        <mxCell id="jBuOz1lgdOzFdynuTPel-73" value="" style="endArrow=classic;html=1;exitX=1;exitY=1;exitDx=0;exitDy=0;entryX=0;entryY=0.5;entryDx=0;entryDy=0;" parent="1" source="jBuOz1lgdOzFdynuTPel-36" target="jBuOz1lgdOzFdynuTPel-4" edge="1">
          <mxGeometry width="50" height="50" relative="1" as="geometry">
            <mxPoint x="460" y="380" as="sourcePoint" />
            <mxPoint x="510" y="330" as="targetPoint" />
          </mxGeometry>
        </mxCell>
        <mxCell id="Mo1VI9ZlYdGk6QYO0pV2-12" style="edgeStyle=orthogonalEdgeStyle;rounded=0;orthogonalLoop=1;jettySize=auto;html=1;entryX=0;entryY=0.5;entryDx=0;entryDy=0;" parent="1" source="Mo1VI9ZlYdGk6QYO0pV2-1" target="Mo1VI9ZlYdGk6QYO0pV2-11" edge="1">
          <mxGeometry relative="1" as="geometry">
            <Array as="points">
              <mxPoint x="633" y="900" />
              <mxPoint x="633" y="925" />
            </Array>
          </mxGeometry>
        </mxCell>
        <mxCell id="Mo1VI9ZlYdGk6QYO0pV2-15" value="" style="edgeStyle=orthogonalEdgeStyle;rounded=0;orthogonalLoop=1;jettySize=auto;html=1;" parent="1" source="Mo1VI9ZlYdGk6QYO0pV2-1" target="Mo1VI9ZlYdGk6QYO0pV2-14" edge="1">
          <mxGeometry relative="1" as="geometry" />
        </mxCell>
        <mxCell id="Mo1VI9ZlYdGk6QYO0pV2-16" value="&amp;lt;inc&amp;gt;" style="edgeLabel;html=1;align=center;verticalAlign=middle;resizable=0;points=[];" parent="Mo1VI9ZlYdGk6QYO0pV2-15" vertex="1" connectable="0">
          <mxGeometry x="-0.4286" y="-3" relative="1" as="geometry">
            <mxPoint as="offset" />
          </mxGeometry>
        </mxCell>
        <mxCell id="6RU31d5W_YfCcojHNEcC-2" style="edgeStyle=orthogonalEdgeStyle;rounded=0;orthogonalLoop=1;jettySize=auto;html=1;exitX=1;exitY=1;exitDx=0;exitDy=0;" parent="1" source="Mo1VI9ZlYdGk6QYO0pV2-1" target="6RU31d5W_YfCcojHNEcC-1" edge="1">
          <mxGeometry relative="1" as="geometry">
            <Array as="points">
              <mxPoint x="600" y="921" />
              <mxPoint x="600" y="1035" />
            </Array>
          </mxGeometry>
        </mxCell>
        <mxCell id="Mo1VI9ZlYdGk6QYO0pV2-1" value="Выбрать номер" style="ellipse;whiteSpace=wrap;html=1;" parent="1" vertex="1">
          <mxGeometry x="448" y="870" width="130" height="60" as="geometry" />
        </mxCell>
        <mxCell id="Mo1VI9ZlYdGk6QYO0pV2-3" value="Просмотреть доступные номера" style="ellipse;whiteSpace=wrap;html=1;" parent="1" vertex="1">
          <mxGeometry x="624" y="780" width="140" height="70" as="geometry" />
        </mxCell>
        <mxCell id="Mo1VI9ZlYdGk6QYO0pV2-4" value="" style="endArrow=classic;html=1;exitX=0.808;exitY=0.05;exitDx=0;exitDy=0;exitPerimeter=0;entryX=0.064;entryY=0.771;entryDx=0;entryDy=0;entryPerimeter=0;" parent="1" source="Mo1VI9ZlYdGk6QYO0pV2-1" target="Mo1VI9ZlYdGk6QYO0pV2-3" edge="1">
          <mxGeometry width="50" height="50" relative="1" as="geometry">
            <mxPoint x="724" y="740" as="sourcePoint" />
            <mxPoint x="774" y="690" as="targetPoint" />
          </mxGeometry>
        </mxCell>
        <mxCell id="Mo1VI9ZlYdGk6QYO0pV2-5" value="&amp;lt;inc&amp;gt;" style="edgeLabel;html=1;align=center;verticalAlign=middle;resizable=0;points=[];" parent="Mo1VI9ZlYdGk6QYO0pV2-4" vertex="1" connectable="0">
          <mxGeometry x="-0.3871" y="-1" relative="1" as="geometry">
            <mxPoint as="offset" />
          </mxGeometry>
        </mxCell>
        <mxCell id="Mo1VI9ZlYdGk6QYO0pV2-11" value="Отобрать по кол-во комнат" style="ellipse;whiteSpace=wrap;html=1;" parent="1" vertex="1">
          <mxGeometry x="687.5" y="890" width="140" height="70" as="geometry" />
        </mxCell>
        <mxCell id="Mo1VI9ZlYdGk6QYO0pV2-13" value="&amp;lt;inc&amp;gt;" style="text;html=1;align=center;verticalAlign=middle;resizable=0;points=[];autosize=1;" parent="1" vertex="1">
          <mxGeometry x="634" y="910" width="40" height="20" as="geometry" />
        </mxCell>
        <mxCell id="Mo1VI9ZlYdGk6QYO0pV2-14" value="Сравнить по ценам" style="ellipse;whiteSpace=wrap;html=1;" parent="1" vertex="1">
          <mxGeometry x="464" y="1035" width="140" height="70" as="geometry" />
        </mxCell>
        <mxCell id="Mo1VI9ZlYdGk6QYO0pV2-25" style="edgeStyle=orthogonalEdgeStyle;rounded=0;orthogonalLoop=1;jettySize=auto;html=1;entryX=0.449;entryY=1;entryDx=0;entryDy=0;entryPerimeter=0;" parent="1" source="Mo1VI9ZlYdGk6QYO0pV2-17" target="Mo1VI9ZlYdGk6QYO0pV2-24" edge="1">
          <mxGeometry relative="1" as="geometry" />
        </mxCell>
        <mxCell id="QbGWxZ84pEoCXEd6ZdSy-1" style="edgeStyle=orthogonalEdgeStyle;rounded=0;orthogonalLoop=1;jettySize=auto;html=1;" parent="1" source="Mo1VI9ZlYdGk6QYO0pV2-17" target="Mo1VI9ZlYdGk6QYO0pV2-1" edge="1">
          <mxGeometry relative="1" as="geometry" />
        </mxCell>
        <mxCell id="Mo1VI9ZlYdGk6QYO0pV2-17" value="Забронировать&lt;br&gt;номер" style="ellipse;whiteSpace=wrap;html=1;" parent="1" vertex="1">
          <mxGeometry x="360" y="585" width="156" height="50" as="geometry" />
        </mxCell>
        <mxCell id="Mo1VI9ZlYdGk6QYO0pV2-18" value="" style="endArrow=none;html=1;exitX=1;exitY=0.3333333333333333;exitDx=0;exitDy=0;exitPerimeter=0;entryX=0;entryY=0.5;entryDx=0;entryDy=0;" parent="1" source="jBuOz1lgdOzFdynuTPel-8" target="Mo1VI9ZlYdGk6QYO0pV2-17" edge="1">
          <mxGeometry width="50" height="50" relative="1" as="geometry">
            <mxPoint x="250" y="640" as="sourcePoint" />
            <mxPoint x="300" y="590" as="targetPoint" />
          </mxGeometry>
        </mxCell>
        <mxCell id="Mo1VI9ZlYdGk6QYO0pV2-19" value="Добавить в забронированные" style="ellipse;whiteSpace=wrap;html=1;" parent="1" vertex="1">
          <mxGeometry x="735.25" y="600" width="156" height="50" as="geometry" />
        </mxCell>
        <mxCell id="Mo1VI9ZlYdGk6QYO0pV2-20" value="" style="endArrow=classic;html=1;entryX=0;entryY=0.5;entryDx=0;entryDy=0;exitX=1;exitY=0.5;exitDx=0;exitDy=0;" parent="1" source="Mo1VI9ZlYdGk6QYO0pV2-17" target="Mo1VI9ZlYdGk6QYO0pV2-19" edge="1">
          <mxGeometry width="50" height="50" relative="1" as="geometry">
            <mxPoint x="520" y="630" as="sourcePoint" />
            <mxPoint x="570" y="580" as="targetPoint" />
          </mxGeometry>
        </mxCell>
        <mxCell id="Mo1VI9ZlYdGk6QYO0pV2-21" value="" style="endArrow=none;html=1;exitX=0.774;exitY=-0.02;exitDx=0;exitDy=0;exitPerimeter=0;" parent="1" source="Mo1VI9ZlYdGk6QYO0pV2-19" target="jBuOz1lgdOzFdynuTPel-1" edge="1">
          <mxGeometry width="50" height="50" relative="1" as="geometry">
            <mxPoint x="940" y="530" as="sourcePoint" />
            <mxPoint x="990" y="480" as="targetPoint" />
          </mxGeometry>
        </mxCell>
        <mxCell id="Mo1VI9ZlYdGk6QYO0pV2-24" value="Дать соглашение на&amp;nbsp;&lt;br&gt;обработку перс данных" style="ellipse;whiteSpace=wrap;html=1;" parent="1" vertex="1">
          <mxGeometry x="390" y="470" width="156" height="50" as="geometry" />
        </mxCell>
        <mxCell id="Mo1VI9ZlYdGk6QYO0pV2-26" value="&amp;lt;inc&amp;gt;" style="text;html=1;align=center;verticalAlign=middle;resizable=0;points=[];autosize=1;" parent="1" vertex="1">
          <mxGeometry x="414" y="530" width="40" height="20" as="geometry" />
        </mxCell>
        <mxCell id="qW_EbId2OeqlzIi75auc-1" value="&amp;lt;inc&amp;gt;" style="text;html=1;align=center;verticalAlign=middle;resizable=0;points=[];autosize=1;" parent="1" vertex="1">
          <mxGeometry x="594" y="620" width="40" height="20" as="geometry" />
        </mxCell>
        <mxCell id="QbGWxZ84pEoCXEd6ZdSy-2" value="&amp;lt;inc&amp;gt;" style="text;html=1;align=center;verticalAlign=middle;resizable=0;points=[];autosize=1;" parent="1" vertex="1">
          <mxGeometry x="454" y="735" width="40" height="20" as="geometry" />
        </mxCell>
        <mxCell id="6RU31d5W_YfCcojHNEcC-1" value="Сравнить по отзывам" style="ellipse;whiteSpace=wrap;html=1;" parent="1" vertex="1">
          <mxGeometry x="653.5" y="1020" width="140" height="70" as="geometry" />
        </mxCell>
        <mxCell id="6RU31d5W_YfCcojHNEcC-3" value="&amp;lt;inc&amp;gt;" style="text;html=1;align=center;verticalAlign=middle;resizable=0;points=[];autosize=1;" parent="1" vertex="1">
          <mxGeometry x="615.25" y="1015" width="40" height="20" as="geometry" />
        </mxCell>
        <mxCell id="RdSSQM30y_jIyFEWHSNe-2" style="edgeStyle=orthogonalEdgeStyle;rounded=0;orthogonalLoop=1;jettySize=auto;html=1;entryX=0.5;entryY=0;entryDx=0;entryDy=0;" parent="1" source="RdSSQM30y_jIyFEWHSNe-1" target="jBuOz1lgdOzFdynuTPel-51" edge="1">
          <mxGeometry relative="1" as="geometry" />
        </mxCell>
        <mxCell id="RdSSQM30y_jIyFEWHSNe-1" value="Просмотреть список услгу" style="ellipse;whiteSpace=wrap;html=1;" parent="1" vertex="1">
          <mxGeometry x="217" y="40" width="140" height="70" as="geometry" />
        </mxCell>
        <mxCell id="IGFBEDyGyXfgOu5R4gh1-2" value="&amp;lt;ext&amp;gt;" style="text;html=1;strokeColor=none;fillColor=none;align=center;verticalAlign=middle;whiteSpace=wrap;rounded=0;" parent="1" vertex="1">
          <mxGeometry x="140" y="110" width="35" height="20" as="geometry" />
        </mxCell>
      </root>
    </mxGraphModel>
  </diagram>
  <diagram id="qtoVvt2qb-78A9gG6gbI" name="Администратор">
    <mxGraphModel dx="1808" dy="539" grid="1" gridSize="10" guides="1" tooltips="1" connect="1" arrows="1" fold="1" page="1" pageScale="1" pageWidth="827" pageHeight="1169" math="0" shadow="0">
      <root>
        <mxCell id="38oIxhuI5JIhiSYT8P2z-0" />
        <mxCell id="38oIxhuI5JIhiSYT8P2z-1" parent="38oIxhuI5JIhiSYT8P2z-0" />
        <mxCell id="pAssMQQc3CmOEAwHyglS-0" value="Администратор" style="shape=umlActor;verticalLabelPosition=bottom;verticalAlign=top;html=1;outlineConnect=0;" parent="38oIxhuI5JIhiSYT8P2z-1" vertex="1">
          <mxGeometry x="605.5" y="410" width="30" height="60" as="geometry" />
        </mxCell>
        <mxCell id="pAssMQQc3CmOEAwHyglS-23" value="Изменение данных о номере" style="ellipse;whiteSpace=wrap;html=1;" parent="38oIxhuI5JIhiSYT8P2z-1" vertex="1">
          <mxGeometry x="595.5" y="270" width="131" height="60" as="geometry" />
        </mxCell>
        <mxCell id="pAssMQQc3CmOEAwHyglS-24" style="edgeStyle=none;rounded=0;orthogonalLoop=1;jettySize=auto;html=1;dashed=1;dashPattern=1 1;" parent="38oIxhuI5JIhiSYT8P2z-1" source="pAssMQQc3CmOEAwHyglS-25" target="pAssMQQc3CmOEAwHyglS-23" edge="1">
          <mxGeometry relative="1" as="geometry" />
        </mxCell>
        <mxCell id="pAssMQQc3CmOEAwHyglS-25" value="Удаление неактуальных предложений" style="ellipse;whiteSpace=wrap;html=1;" parent="38oIxhuI5JIhiSYT8P2z-1" vertex="1">
          <mxGeometry x="860" y="210" width="131" height="60" as="geometry" />
        </mxCell>
        <mxCell id="pAssMQQc3CmOEAwHyglS-26" style="edgeStyle=none;rounded=0;orthogonalLoop=1;jettySize=auto;html=1;dashed=1;dashPattern=1 1;" parent="38oIxhuI5JIhiSYT8P2z-1" source="pAssMQQc3CmOEAwHyglS-27" target="pAssMQQc3CmOEAwHyglS-23" edge="1">
          <mxGeometry relative="1" as="geometry" />
        </mxCell>
        <mxCell id="pAssMQQc3CmOEAwHyglS-27" value="Добавление актуальных предложений" style="ellipse;whiteSpace=wrap;html=1;" parent="38oIxhuI5JIhiSYT8P2z-1" vertex="1">
          <mxGeometry x="635.5" y="100" width="131" height="60" as="geometry" />
        </mxCell>
        <mxCell id="pAssMQQc3CmOEAwHyglS-33" value="&amp;lt;extd&amp;gt;" style="text;html=1;strokeColor=none;fillColor=none;align=center;verticalAlign=middle;whiteSpace=wrap;rounded=0;" parent="38oIxhuI5JIhiSYT8P2z-1" vertex="1">
          <mxGeometry x="786.25" y="270" width="30" height="25" as="geometry" />
        </mxCell>
        <mxCell id="pAssMQQc3CmOEAwHyglS-34" value="&amp;lt;extd&amp;gt;" style="text;html=1;strokeColor=none;fillColor=none;align=center;verticalAlign=middle;whiteSpace=wrap;rounded=0;" parent="38oIxhuI5JIhiSYT8P2z-1" vertex="1">
          <mxGeometry x="646" y="182.5" width="30" height="25" as="geometry" />
        </mxCell>
        <mxCell id="pAssMQQc3CmOEAwHyglS-37" value="" style="endArrow=none;html=1;shadow=0;strokeColor=#000000;entryX=0.042;entryY=0.664;entryDx=0;entryDy=0;entryPerimeter=0;" parent="38oIxhuI5JIhiSYT8P2z-1" target="pAssMQQc3CmOEAwHyglS-23" edge="1">
          <mxGeometry width="50" height="50" relative="1" as="geometry">
            <mxPoint x="640" y="431" as="sourcePoint" />
            <mxPoint x="864.5" y="469.1" as="targetPoint" />
          </mxGeometry>
        </mxCell>
        <mxCell id="l-Nrn3gGirCYDMZSxurx-3" value="Онулировать&amp;nbsp;&lt;br&gt;бронирование&amp;nbsp;" style="ellipse;whiteSpace=wrap;html=1;" parent="38oIxhuI5JIhiSYT8P2z-1" vertex="1">
          <mxGeometry x="800" y="600" width="111" height="60" as="geometry" />
        </mxCell>
        <mxCell id="l-Nrn3gGirCYDMZSxurx-4" value="Предоставить счет" style="ellipse;whiteSpace=wrap;html=1;" parent="38oIxhuI5JIhiSYT8P2z-1" vertex="1">
          <mxGeometry x="1000" y="560" width="100" height="50" as="geometry" />
        </mxCell>
        <mxCell id="P6efIZRxWuD7nFfZ_JRS-0" value="Посмотреть &lt;br&gt;свободные номера" style="ellipse;whiteSpace=wrap;html=1;" parent="38oIxhuI5JIhiSYT8P2z-1" vertex="1">
          <mxGeometry x="240.25" width="140" height="70" as="geometry" />
        </mxCell>
        <mxCell id="P6efIZRxWuD7nFfZ_JRS-2" value="Проверить оплату клиента" style="ellipse;whiteSpace=wrap;html=1;" parent="38oIxhuI5JIhiSYT8P2z-1" vertex="1">
          <mxGeometry x="10" y="160" width="140" height="70" as="geometry" />
        </mxCell>
        <mxCell id="P6efIZRxWuD7nFfZ_JRS-4" style="edgeStyle=none;rounded=0;orthogonalLoop=1;jettySize=auto;html=1;dashed=1;dashPattern=1 1;" parent="38oIxhuI5JIhiSYT8P2z-1" source="P6efIZRxWuD7nFfZ_JRS-5" target="P6efIZRxWuD7nFfZ_JRS-11" edge="1">
          <mxGeometry relative="1" as="geometry" />
        </mxCell>
        <mxCell id="P6efIZRxWuD7nFfZ_JRS-5" value="Включить скидочное&lt;br&gt;приложение" style="ellipse;whiteSpace=wrap;html=1;" parent="38oIxhuI5JIhiSYT8P2z-1" vertex="1">
          <mxGeometry x="-70" y="295" width="120" height="80" as="geometry" />
        </mxCell>
        <mxCell id="P6efIZRxWuD7nFfZ_JRS-7" style="edgeStyle=none;rounded=0;orthogonalLoop=1;jettySize=auto;html=1;dashed=1;dashPattern=1 1;" parent="38oIxhuI5JIhiSYT8P2z-1" source="P6efIZRxWuD7nFfZ_JRS-11" target="P6efIZRxWuD7nFfZ_JRS-12" edge="1">
          <mxGeometry relative="1" as="geometry" />
        </mxCell>
        <mxCell id="P6efIZRxWuD7nFfZ_JRS-9" style="edgeStyle=none;rounded=0;orthogonalLoop=1;jettySize=auto;html=1;dashed=1;dashPattern=1 1;" parent="38oIxhuI5JIhiSYT8P2z-1" source="P6efIZRxWuD7nFfZ_JRS-11" target="P6efIZRxWuD7nFfZ_JRS-0" edge="1">
          <mxGeometry relative="1" as="geometry" />
        </mxCell>
        <mxCell id="P6efIZRxWuD7nFfZ_JRS-10" style="edgeStyle=none;rounded=0;orthogonalLoop=1;jettySize=auto;html=1;dashed=1;dashPattern=1 1;" parent="38oIxhuI5JIhiSYT8P2z-1" source="P6efIZRxWuD7nFfZ_JRS-11" target="P6efIZRxWuD7nFfZ_JRS-2" edge="1">
          <mxGeometry relative="1" as="geometry" />
        </mxCell>
        <mxCell id="P6efIZRxWuD7nFfZ_JRS-11" value="Заключить договор" style="ellipse;whiteSpace=wrap;html=1;" parent="38oIxhuI5JIhiSYT8P2z-1" vertex="1">
          <mxGeometry x="353" y="360" width="121" height="60" as="geometry" />
        </mxCell>
        <mxCell id="P6efIZRxWuD7nFfZ_JRS-12" value="Указать персональные данные постояльцев" style="ellipse;whiteSpace=wrap;html=1;" parent="38oIxhuI5JIhiSYT8P2z-1" vertex="1">
          <mxGeometry x="458.25" y="67.5" width="147.25" height="70" as="geometry" />
        </mxCell>
        <mxCell id="P6efIZRxWuD7nFfZ_JRS-13" value="&amp;lt;inc&amp;gt;" style="text;html=1;strokeColor=none;fillColor=none;align=center;verticalAlign=middle;whiteSpace=wrap;rounded=0;" parent="38oIxhuI5JIhiSYT8P2z-1" vertex="1">
          <mxGeometry x="190.25" y="240" width="40" height="20" as="geometry" />
        </mxCell>
        <mxCell id="P6efIZRxWuD7nFfZ_JRS-14" value="&amp;lt;inc&amp;gt;" style="text;html=1;strokeColor=none;fillColor=none;align=center;verticalAlign=middle;whiteSpace=wrap;rounded=0;" parent="38oIxhuI5JIhiSYT8P2z-1" vertex="1">
          <mxGeometry x="309.25" y="165" width="40" height="20" as="geometry" />
        </mxCell>
        <mxCell id="P6efIZRxWuD7nFfZ_JRS-15" value="&amp;lt;inc&amp;gt;" style="text;html=1;strokeColor=none;fillColor=none;align=center;verticalAlign=middle;whiteSpace=wrap;rounded=0;" parent="38oIxhuI5JIhiSYT8P2z-1" vertex="1">
          <mxGeometry x="470" y="250" width="40" height="20" as="geometry" />
        </mxCell>
        <mxCell id="P6efIZRxWuD7nFfZ_JRS-18" value="&amp;lt;extd&amp;gt;" style="text;html=1;strokeColor=none;fillColor=none;align=center;verticalAlign=middle;whiteSpace=wrap;rounded=0;" parent="38oIxhuI5JIhiSYT8P2z-1" vertex="1">
          <mxGeometry x="150" y="360" width="30" height="25" as="geometry" />
        </mxCell>
        <mxCell id="sKqTmuSp-56ckXu3jSMT-1" value="" style="endArrow=none;html=1;exitX=0.579;exitY=1.017;exitDx=0;exitDy=0;exitPerimeter=0;" parent="38oIxhuI5JIhiSYT8P2z-1" source="P6efIZRxWuD7nFfZ_JRS-11" target="pAssMQQc3CmOEAwHyglS-0" edge="1">
          <mxGeometry width="50" height="50" relative="1" as="geometry">
            <mxPoint x="420" y="500" as="sourcePoint" />
            <mxPoint x="470" y="450" as="targetPoint" />
          </mxGeometry>
        </mxCell>
        <mxCell id="1ENhT8a0rhylOBzq0JXO-1" style="edgeStyle=orthogonalEdgeStyle;rounded=0;orthogonalLoop=1;jettySize=auto;html=1;entryX=0;entryY=0.5;entryDx=0;entryDy=0;" parent="38oIxhuI5JIhiSYT8P2z-1" source="sKqTmuSp-56ckXu3jSMT-2" target="1ENhT8a0rhylOBzq0JXO-0" edge="1">
          <mxGeometry relative="1" as="geometry" />
        </mxCell>
        <mxCell id="sKqTmuSp-56ckXu3jSMT-2" value="Расторгнуть договор&amp;nbsp;" style="ellipse;whiteSpace=wrap;html=1;" parent="38oIxhuI5JIhiSYT8P2z-1" vertex="1">
          <mxGeometry x="831" y="490" width="160" height="40" as="geometry" />
        </mxCell>
        <mxCell id="sKqTmuSp-56ckXu3jSMT-3" value="" style="endArrow=none;html=1;" parent="38oIxhuI5JIhiSYT8P2z-1" edge="1">
          <mxGeometry width="50" height="50" relative="1" as="geometry">
            <mxPoint x="650" y="460" as="sourcePoint" />
            <mxPoint x="830" y="510" as="targetPoint" />
          </mxGeometry>
        </mxCell>
        <mxCell id="jYXX34db9_AlkuZFa3LQ-0" value="СУБД" style="shape=umlActor;verticalLabelPosition=bottom;verticalAlign=top;html=1;outlineConnect=0;" parent="38oIxhuI5JIhiSYT8P2z-1" vertex="1">
          <mxGeometry x="1140" y="660" width="30" height="60" as="geometry" />
        </mxCell>
        <mxCell id="jYXX34db9_AlkuZFa3LQ-1" value="" style="endArrow=none;html=1;" parent="38oIxhuI5JIhiSYT8P2z-1" source="l-Nrn3gGirCYDMZSxurx-4" target="jYXX34db9_AlkuZFa3LQ-0" edge="1">
          <mxGeometry width="50" height="50" relative="1" as="geometry">
            <mxPoint x="1150" y="550" as="sourcePoint" />
            <mxPoint x="1200" y="500" as="targetPoint" />
          </mxGeometry>
        </mxCell>
        <mxCell id="jYXX34db9_AlkuZFa3LQ-2" value="" style="endArrow=classic;html=1;" parent="38oIxhuI5JIhiSYT8P2z-1" source="sKqTmuSp-56ckXu3jSMT-2" target="l-Nrn3gGirCYDMZSxurx-4" edge="1">
          <mxGeometry width="50" height="50" relative="1" as="geometry">
            <mxPoint x="910" y="620" as="sourcePoint" />
            <mxPoint x="960" y="570" as="targetPoint" />
          </mxGeometry>
        </mxCell>
        <mxCell id="jYXX34db9_AlkuZFa3LQ-3" value="" style="endArrow=classic;html=1;exitX=0.256;exitY=1.075;exitDx=0;exitDy=0;exitPerimeter=0;" parent="38oIxhuI5JIhiSYT8P2z-1" source="sKqTmuSp-56ckXu3jSMT-2" target="l-Nrn3gGirCYDMZSxurx-3" edge="1">
          <mxGeometry width="50" height="50" relative="1" as="geometry">
            <mxPoint x="690" y="580" as="sourcePoint" />
            <mxPoint x="740" y="530" as="targetPoint" />
          </mxGeometry>
        </mxCell>
        <mxCell id="jYXX34db9_AlkuZFa3LQ-4" value="" style="endArrow=none;html=1;exitX=1;exitY=1;exitDx=0;exitDy=0;entryX=0;entryY=1;entryDx=0;entryDy=0;entryPerimeter=0;" parent="38oIxhuI5JIhiSYT8P2z-1" source="l-Nrn3gGirCYDMZSxurx-3" target="jYXX34db9_AlkuZFa3LQ-0" edge="1">
          <mxGeometry width="50" height="50" relative="1" as="geometry">
            <mxPoint x="970" y="750" as="sourcePoint" />
            <mxPoint x="1020" y="700" as="targetPoint" />
          </mxGeometry>
        </mxCell>
        <mxCell id="Egk2MygD9TCRSqLBFJjn-4" style="edgeStyle=orthogonalEdgeStyle;rounded=0;orthogonalLoop=1;jettySize=auto;html=1;entryX=0.993;entryY=0.76;entryDx=0;entryDy=0;entryPerimeter=0;" parent="38oIxhuI5JIhiSYT8P2z-1" source="Egk2MygD9TCRSqLBFJjn-0" target="Egk2MygD9TCRSqLBFJjn-2" edge="1">
          <mxGeometry relative="1" as="geometry" />
        </mxCell>
        <mxCell id="Egk2MygD9TCRSqLBFJjn-7" style="edgeStyle=orthogonalEdgeStyle;rounded=0;orthogonalLoop=1;jettySize=auto;html=1;" parent="38oIxhuI5JIhiSYT8P2z-1" source="Egk2MygD9TCRSqLBFJjn-0" edge="1">
          <mxGeometry relative="1" as="geometry">
            <mxPoint x="360" y="640" as="targetPoint" />
          </mxGeometry>
        </mxCell>
        <mxCell id="Egk2MygD9TCRSqLBFJjn-0" value="Составить рейтинг юр. лиц" style="ellipse;whiteSpace=wrap;html=1;" parent="38oIxhuI5JIhiSYT8P2z-1" vertex="1">
          <mxGeometry x="337.25" y="530" width="121" height="60" as="geometry" />
        </mxCell>
        <mxCell id="Egk2MygD9TCRSqLBFJjn-1" value="" style="endArrow=none;html=1;" parent="38oIxhuI5JIhiSYT8P2z-1" edge="1">
          <mxGeometry width="50" height="50" relative="1" as="geometry">
            <mxPoint x="410" y="530" as="sourcePoint" />
            <mxPoint x="600" y="470" as="targetPoint" />
          </mxGeometry>
        </mxCell>
        <mxCell id="Egk2MygD9TCRSqLBFJjn-2" value="Рассчитать скидку&amp;nbsp;" style="ellipse;whiteSpace=wrap;html=1;" parent="38oIxhuI5JIhiSYT8P2z-1" vertex="1">
          <mxGeometry x="90" y="470" width="150" height="50" as="geometry" />
        </mxCell>
        <mxCell id="Egk2MygD9TCRSqLBFJjn-5" value="Создать Рейтинг Юр. лиц" style="ellipse;whiteSpace=wrap;html=1;" parent="38oIxhuI5JIhiSYT8P2z-1" vertex="1">
          <mxGeometry x="280" y="640" width="150" height="50" as="geometry" />
        </mxCell>
        <mxCell id="Egk2MygD9TCRSqLBFJjn-6" value="&amp;lt;inc&amp;gt;" style="text;html=1;strokeColor=none;fillColor=none;align=center;verticalAlign=middle;whiteSpace=wrap;rounded=0;" parent="38oIxhuI5JIhiSYT8P2z-1" vertex="1">
          <mxGeometry x="250" y="480" width="40" height="20" as="geometry" />
        </mxCell>
        <mxCell id="Egk2MygD9TCRSqLBFJjn-8" value="&amp;lt;inc&amp;gt;" style="text;html=1;strokeColor=none;fillColor=none;align=center;verticalAlign=middle;whiteSpace=wrap;rounded=0;" parent="38oIxhuI5JIhiSYT8P2z-1" vertex="1">
          <mxGeometry x="400" y="600" width="40" height="20" as="geometry" />
        </mxCell>
        <mxCell id="Egk2MygD9TCRSqLBFJjn-9" value="&amp;lt;inc&amp;gt;" style="text;html=1;strokeColor=none;fillColor=none;align=center;verticalAlign=middle;whiteSpace=wrap;rounded=0;" parent="38oIxhuI5JIhiSYT8P2z-1" vertex="1">
          <mxGeometry x="820" y="560" width="40" height="20" as="geometry" />
        </mxCell>
        <mxCell id="Egk2MygD9TCRSqLBFJjn-10" value="&amp;lt;inc&amp;gt;" style="text;html=1;strokeColor=none;fillColor=none;align=center;verticalAlign=middle;whiteSpace=wrap;rounded=0;" parent="38oIxhuI5JIhiSYT8P2z-1" vertex="1">
          <mxGeometry x="991" y="530" width="40" height="20" as="geometry" />
        </mxCell>
        <mxCell id="1ENhT8a0rhylOBzq0JXO-0" value="Выбрать нужный договор" style="ellipse;whiteSpace=wrap;html=1;" parent="38oIxhuI5JIhiSYT8P2z-1" vertex="1">
          <mxGeometry x="1050" y="440" width="111" height="60" as="geometry" />
        </mxCell>
      </root>
    </mxGraphModel>
  </diagram>
  <diagram id="483c7NVtDVF2D_C4DVlW" name="Менедженр">
    <mxGraphModel dx="1808" dy="539" grid="1" gridSize="10" guides="1" tooltips="1" connect="1" arrows="1" fold="1" page="1" pageScale="1" pageWidth="827" pageHeight="1169" math="0" shadow="0">
      <root>
        <mxCell id="uSDLY-LQ0ai2ZPb-gKgt-0" />
        <mxCell id="uSDLY-LQ0ai2ZPb-gKgt-1" parent="uSDLY-LQ0ai2ZPb-gKgt-0" />
        <mxCell id="cEMCs7q33dmRLzaOVxJ8-0" style="edgeStyle=orthogonalEdgeStyle;rounded=0;orthogonalLoop=1;jettySize=auto;html=1;entryX=1;entryY=0.5;entryDx=0;entryDy=0;" parent="uSDLY-LQ0ai2ZPb-gKgt-1" source="WRh_jARvBo-rR9-pnY8D-0" target="WRh_jARvBo-rR9-pnY8D-2" edge="1">
          <mxGeometry relative="1" as="geometry" />
        </mxCell>
        <mxCell id="cEMCs7q33dmRLzaOVxJ8-7" style="edgeStyle=orthogonalEdgeStyle;rounded=0;orthogonalLoop=1;jettySize=auto;html=1;" parent="uSDLY-LQ0ai2ZPb-gKgt-1" source="WRh_jARvBo-rR9-pnY8D-0" target="cEMCs7q33dmRLzaOVxJ8-6" edge="1">
          <mxGeometry relative="1" as="geometry" />
        </mxCell>
        <mxCell id="WRh_jARvBo-rR9-pnY8D-0" value="Изменение данных об услугах" style="ellipse;whiteSpace=wrap;html=1;" parent="uSDLY-LQ0ai2ZPb-gKgt-1" vertex="1">
          <mxGeometry x="-150" y="490" width="131" height="60" as="geometry" />
        </mxCell>
        <mxCell id="WRh_jARvBo-rR9-pnY8D-2" value="Добавление актуальных&lt;br&gt;&amp;nbsp;данных" style="ellipse;whiteSpace=wrap;html=1;" parent="uSDLY-LQ0ai2ZPb-gKgt-1" vertex="1">
          <mxGeometry x="-370" y="470" width="131" height="60" as="geometry" />
        </mxCell>
        <mxCell id="flKbeY6O-kOaZVXrfeEq-3" value="Менеджер&lt;br&gt;" style="shape=umlActor;verticalLabelPosition=bottom;verticalAlign=top;html=1;outlineConnect=0;" parent="uSDLY-LQ0ai2ZPb-gKgt-1" vertex="1">
          <mxGeometry x="-99.5" y="640" width="30" height="60" as="geometry" />
        </mxCell>
        <mxCell id="KvGmGHFCvTTDNzXqPSk9-3" value="" style="endArrow=none;html=1;entryX=0.336;entryY=0.983;entryDx=0;entryDy=0;entryPerimeter=0;exitX=0.5;exitY=0;exitDx=0;exitDy=0;exitPerimeter=0;" parent="uSDLY-LQ0ai2ZPb-gKgt-1" source="flKbeY6O-kOaZVXrfeEq-3" target="WRh_jARvBo-rR9-pnY8D-0" edge="1">
          <mxGeometry width="50" height="50" relative="1" as="geometry">
            <mxPoint x="-170" y="640" as="sourcePoint" />
            <mxPoint x="-120" y="590" as="targetPoint" />
          </mxGeometry>
        </mxCell>
        <mxCell id="A7rNarrS_euKAOB05VDf-0" value="Добавление скидки&amp;nbsp;&lt;br&gt;пользователю" style="ellipse;whiteSpace=wrap;html=1;" parent="uSDLY-LQ0ai2ZPb-gKgt-1" vertex="1">
          <mxGeometry x="80" y="610" width="131" height="60" as="geometry" />
        </mxCell>
        <mxCell id="A7rNarrS_euKAOB05VDf-1" value="" style="endArrow=none;html=1;exitX=1;exitY=0.3333333333333333;exitDx=0;exitDy=0;exitPerimeter=0;entryX=0;entryY=0.5;entryDx=0;entryDy=0;" parent="uSDLY-LQ0ai2ZPb-gKgt-1" source="flKbeY6O-kOaZVXrfeEq-3" target="A7rNarrS_euKAOB05VDf-0" edge="1">
          <mxGeometry width="50" height="50" relative="1" as="geometry">
            <mxPoint x="60" y="630" as="sourcePoint" />
            <mxPoint x="110" y="580" as="targetPoint" />
          </mxGeometry>
        </mxCell>
        <mxCell id="A7rNarrS_euKAOB05VDf-2" value="Добавить к заданной услгуи" style="ellipse;whiteSpace=wrap;html=1;" parent="uSDLY-LQ0ai2ZPb-gKgt-1" vertex="1">
          <mxGeometry x="220" y="507.5" width="140" height="50" as="geometry" />
        </mxCell>
        <mxCell id="A7rNarrS_euKAOB05VDf-3" value="" style="endArrow=classic;html=1;entryX=0;entryY=0.5;entryDx=0;entryDy=0;" parent="uSDLY-LQ0ai2ZPb-gKgt-1" target="A7rNarrS_euKAOB05VDf-2" edge="1">
          <mxGeometry width="50" height="50" relative="1" as="geometry">
            <mxPoint x="160" y="600" as="sourcePoint" />
            <mxPoint x="150" y="550" as="targetPoint" />
          </mxGeometry>
        </mxCell>
        <mxCell id="A7rNarrS_euKAOB05VDf-4" value="&amp;lt;inc&amp;gt;" style="text;html=1;align=center;verticalAlign=middle;resizable=0;points=[];autosize=1;" parent="uSDLY-LQ0ai2ZPb-gKgt-1" vertex="1">
          <mxGeometry x="140" y="550" width="40" height="20" as="geometry" />
        </mxCell>
        <mxCell id="A7rNarrS_euKAOB05VDf-5" value="Добавить к заданному&lt;br&gt;номеру" style="ellipse;whiteSpace=wrap;html=1;" parent="uSDLY-LQ0ai2ZPb-gKgt-1" vertex="1">
          <mxGeometry x="280" y="645" width="140" height="50" as="geometry" />
        </mxCell>
        <mxCell id="fH7loVH3EH6LjON6tl4P-0" value="" style="endArrow=classic;html=1;entryX=1;entryY=1;entryDx=0;entryDy=0;exitX=0;exitY=0.5;exitDx=0;exitDy=0;" parent="uSDLY-LQ0ai2ZPb-gKgt-1" source="A7rNarrS_euKAOB05VDf-5" target="A7rNarrS_euKAOB05VDf-0" edge="1">
          <mxGeometry width="50" height="50" relative="1" as="geometry">
            <mxPoint x="220" y="790" as="sourcePoint" />
            <mxPoint x="270" y="740" as="targetPoint" />
          </mxGeometry>
        </mxCell>
        <mxCell id="fH7loVH3EH6LjON6tl4P-1" value="&amp;lt;extd&amp;gt;" style="text;html=1;strokeColor=none;fillColor=none;align=center;verticalAlign=middle;whiteSpace=wrap;rounded=0;" parent="uSDLY-LQ0ai2ZPb-gKgt-1" vertex="1">
          <mxGeometry x="230" y="640" width="30" height="25" as="geometry" />
        </mxCell>
        <mxCell id="HyI4TdV1n9duVWi9CGJZ-6" style="edgeStyle=orthogonalEdgeStyle;rounded=0;orthogonalLoop=1;jettySize=auto;html=1;entryX=1;entryY=1;entryDx=0;entryDy=0;" parent="uSDLY-LQ0ai2ZPb-gKgt-1" source="HyI4TdV1n9duVWi9CGJZ-0" target="HyI4TdV1n9duVWi9CGJZ-2" edge="1">
          <mxGeometry relative="1" as="geometry" />
        </mxCell>
        <mxCell id="HyI4TdV1n9duVWi9CGJZ-7" style="edgeStyle=orthogonalEdgeStyle;rounded=0;orthogonalLoop=1;jettySize=auto;html=1;" parent="uSDLY-LQ0ai2ZPb-gKgt-1" source="HyI4TdV1n9duVWi9CGJZ-0" edge="1">
          <mxGeometry relative="1" as="geometry">
            <mxPoint x="-320" y="820" as="targetPoint" />
          </mxGeometry>
        </mxCell>
        <mxCell id="HyI4TdV1n9duVWi9CGJZ-0" value="Анализ приобретенных номеров" style="ellipse;whiteSpace=wrap;html=1;" parent="uSDLY-LQ0ai2ZPb-gKgt-1" vertex="1">
          <mxGeometry x="-370" y="665" width="160" height="60" as="geometry" />
        </mxCell>
        <mxCell id="HyI4TdV1n9duVWi9CGJZ-1" value="" style="endArrow=none;html=1;exitX=0.956;exitY=0.2;exitDx=0;exitDy=0;exitPerimeter=0;entryX=0;entryY=0.3333333333333333;entryDx=0;entryDy=0;entryPerimeter=0;" parent="uSDLY-LQ0ai2ZPb-gKgt-1" source="HyI4TdV1n9duVWi9CGJZ-0" target="flKbeY6O-kOaZVXrfeEq-3" edge="1">
          <mxGeometry width="50" height="50" relative="1" as="geometry">
            <mxPoint x="-220" y="680" as="sourcePoint" />
            <mxPoint x="-170" y="630" as="targetPoint" />
          </mxGeometry>
        </mxCell>
        <mxCell id="HyI4TdV1n9duVWi9CGJZ-2" value="Выбрать номера за периуд" style="ellipse;whiteSpace=wrap;html=1;" parent="uSDLY-LQ0ai2ZPb-gKgt-1" vertex="1">
          <mxGeometry x="-620" y="617.5" width="150" height="45" as="geometry" />
        </mxCell>
        <mxCell id="HyI4TdV1n9duVWi9CGJZ-4" value="&amp;lt;inc&amp;gt;" style="text;html=1;align=center;verticalAlign=middle;resizable=0;points=[];autosize=1;" parent="uSDLY-LQ0ai2ZPb-gKgt-1" vertex="1">
          <mxGeometry x="-470" y="675" width="40" height="20" as="geometry" />
        </mxCell>
        <mxCell id="HyI4TdV1n9duVWi9CGJZ-5" value="Просмотр кол-во включенных услгу" style="ellipse;whiteSpace=wrap;html=1;" parent="uSDLY-LQ0ai2ZPb-gKgt-1" vertex="1">
          <mxGeometry x="-400" y="820" width="150" height="45" as="geometry" />
        </mxCell>
        <mxCell id="HyI4TdV1n9duVWi9CGJZ-8" value="&amp;lt;inc&amp;gt;" style="text;html=1;align=center;verticalAlign=middle;resizable=0;points=[];autosize=1;" parent="uSDLY-LQ0ai2ZPb-gKgt-1" vertex="1">
          <mxGeometry x="-290" y="770" width="40" height="20" as="geometry" />
        </mxCell>
        <mxCell id="HyI4TdV1n9duVWi9CGJZ-14" style="edgeStyle=orthogonalEdgeStyle;rounded=0;orthogonalLoop=1;jettySize=auto;html=1;entryX=0.5;entryY=0;entryDx=0;entryDy=0;" parent="uSDLY-LQ0ai2ZPb-gKgt-1" source="HyI4TdV1n9duVWi9CGJZ-9" target="HyI4TdV1n9duVWi9CGJZ-13" edge="1">
          <mxGeometry relative="1" as="geometry" />
        </mxCell>
        <mxCell id="HyI4TdV1n9duVWi9CGJZ-17" style="edgeStyle=orthogonalEdgeStyle;rounded=0;orthogonalLoop=1;jettySize=auto;html=1;exitX=1;exitY=0.5;exitDx=0;exitDy=0;entryX=0.5;entryY=0;entryDx=0;entryDy=0;" parent="uSDLY-LQ0ai2ZPb-gKgt-1" source="HyI4TdV1n9duVWi9CGJZ-9" target="HyI4TdV1n9duVWi9CGJZ-16" edge="1">
          <mxGeometry relative="1" as="geometry" />
        </mxCell>
        <mxCell id="HyI4TdV1n9duVWi9CGJZ-9" value="Анализ предоставляемых скидок" style="ellipse;whiteSpace=wrap;html=1;" parent="uSDLY-LQ0ai2ZPb-gKgt-1" vertex="1">
          <mxGeometry x="-384.75" y="920" width="170.5" height="55" as="geometry" />
        </mxCell>
        <mxCell id="cEMCs7q33dmRLzaOVxJ8-9" style="edgeStyle=orthogonalEdgeStyle;rounded=0;orthogonalLoop=1;jettySize=auto;html=1;entryX=0;entryY=0.5;entryDx=0;entryDy=0;" parent="uSDLY-LQ0ai2ZPb-gKgt-1" source="HyI4TdV1n9duVWi9CGJZ-11" target="HyI4TdV1n9duVWi9CGJZ-9" edge="1">
          <mxGeometry relative="1" as="geometry">
            <Array as="points">
              <mxPoint x="-500" y="1033" />
              <mxPoint x="-405" y="1033" />
              <mxPoint x="-405" y="948" />
            </Array>
          </mxGeometry>
        </mxCell>
        <mxCell id="HyI4TdV1n9duVWi9CGJZ-11" value="Выбор скидки для анализа" style="ellipse;whiteSpace=wrap;html=1;" parent="uSDLY-LQ0ai2ZPb-gKgt-1" vertex="1">
          <mxGeometry x="-584.75" y="1090" width="180" height="50" as="geometry" />
        </mxCell>
        <mxCell id="HyI4TdV1n9duVWi9CGJZ-13" value="Найти процент выгоды полуеной от скидки" style="ellipse;whiteSpace=wrap;html=1;" parent="uSDLY-LQ0ai2ZPb-gKgt-1" vertex="1">
          <mxGeometry x="-364.75" y="1080" width="180" height="50" as="geometry" />
        </mxCell>
        <mxCell id="HyI4TdV1n9duVWi9CGJZ-15" value="" style="endArrow=none;html=1;exitX=0.411;exitY=0;exitDx=0;exitDy=0;exitPerimeter=0;entryX=1;entryY=1;entryDx=0;entryDy=0;entryPerimeter=0;" parent="uSDLY-LQ0ai2ZPb-gKgt-1" source="HyI4TdV1n9duVWi9CGJZ-9" target="flKbeY6O-kOaZVXrfeEq-3" edge="1">
          <mxGeometry width="50" height="50" relative="1" as="geometry">
            <mxPoint x="-50" y="800" as="sourcePoint" />
            <mxPoint y="750" as="targetPoint" />
            <Array as="points">
              <mxPoint x="-84" y="880" />
            </Array>
          </mxGeometry>
        </mxCell>
        <mxCell id="HyI4TdV1n9duVWi9CGJZ-16" value="Анализ кол-во людей воспользуовашихся" style="ellipse;whiteSpace=wrap;html=1;" parent="uSDLY-LQ0ai2ZPb-gKgt-1" vertex="1">
          <mxGeometry x="-169.75" y="1080" width="180" height="50" as="geometry" />
        </mxCell>
        <mxCell id="HyI4TdV1n9duVWi9CGJZ-18" value="&amp;lt;ext&amp;gt;" style="text;html=1;align=center;verticalAlign=middle;resizable=0;points=[];autosize=1;" parent="uSDLY-LQ0ai2ZPb-gKgt-1" vertex="1">
          <mxGeometry x="-499.75" y="975" width="50" height="20" as="geometry" />
        </mxCell>
        <mxCell id="HyI4TdV1n9duVWi9CGJZ-19" value="&amp;lt;inc&amp;gt;" style="text;html=1;align=center;verticalAlign=middle;resizable=0;points=[];autosize=1;" parent="uSDLY-LQ0ai2ZPb-gKgt-1" vertex="1">
          <mxGeometry x="-298.25" y="995" width="40" height="20" as="geometry" />
        </mxCell>
        <mxCell id="HyI4TdV1n9duVWi9CGJZ-20" value="&amp;lt;inc&amp;gt;" style="text;html=1;align=center;verticalAlign=middle;resizable=0;points=[];autosize=1;" parent="uSDLY-LQ0ai2ZPb-gKgt-1" vertex="1">
          <mxGeometry x="-99.75" y="960" width="40" height="20" as="geometry" />
        </mxCell>
        <mxCell id="vDPD3AiG6hyJDihCyzxz-4" style="edgeStyle=orthogonalEdgeStyle;rounded=0;orthogonalLoop=1;jettySize=auto;html=1;" parent="uSDLY-LQ0ai2ZPb-gKgt-1" source="vDPD3AiG6hyJDihCyzxz-0" target="vDPD3AiG6hyJDihCyzxz-2" edge="1">
          <mxGeometry relative="1" as="geometry" />
        </mxCell>
        <mxCell id="vDPD3AiG6hyJDihCyzxz-5" style="edgeStyle=orthogonalEdgeStyle;rounded=0;orthogonalLoop=1;jettySize=auto;html=1;" parent="uSDLY-LQ0ai2ZPb-gKgt-1" source="vDPD3AiG6hyJDihCyzxz-0" edge="1">
          <mxGeometry relative="1" as="geometry">
            <mxPoint x="544.75" y="350" as="targetPoint" />
          </mxGeometry>
        </mxCell>
        <mxCell id="vDPD3AiG6hyJDihCyzxz-9" style="edgeStyle=orthogonalEdgeStyle;rounded=0;orthogonalLoop=1;jettySize=auto;html=1;" parent="uSDLY-LQ0ai2ZPb-gKgt-1" source="vDPD3AiG6hyJDihCyzxz-0" edge="1">
          <mxGeometry relative="1" as="geometry">
            <mxPoint x="334.75" y="170" as="targetPoint" />
          </mxGeometry>
        </mxCell>
        <mxCell id="cEMCs7q33dmRLzaOVxJ8-4" style="edgeStyle=orthogonalEdgeStyle;rounded=0;orthogonalLoop=1;jettySize=auto;html=1;entryX=1;entryY=0.5;entryDx=0;entryDy=0;" parent="uSDLY-LQ0ai2ZPb-gKgt-1" source="vDPD3AiG6hyJDihCyzxz-0" target="WRh_jARvBo-rR9-pnY8D-0" edge="1">
          <mxGeometry relative="1" as="geometry">
            <Array as="points">
              <mxPoint x="160" y="248" />
              <mxPoint x="160" y="520" />
            </Array>
          </mxGeometry>
        </mxCell>
        <mxCell id="vDPD3AiG6hyJDihCyzxz-0" value="Анализ предоставленных доп. услуг" style="ellipse;whiteSpace=wrap;html=1;" parent="uSDLY-LQ0ai2ZPb-gKgt-1" vertex="1">
          <mxGeometry x="214.75" y="220" width="170.5" height="55" as="geometry" />
        </mxCell>
        <mxCell id="vDPD3AiG6hyJDihCyzxz-2" value="Найти&amp;nbsp; кол-во полученных&lt;br&gt;доп услуги" style="ellipse;whiteSpace=wrap;html=1;" parent="uSDLY-LQ0ai2ZPb-gKgt-1" vertex="1">
          <mxGeometry x="210" y="355" width="180" height="50" as="geometry" />
        </mxCell>
        <mxCell id="vDPD3AiG6hyJDihCyzxz-3" value="Создать рейтинг доп. услуг" style="ellipse;whiteSpace=wrap;html=1;" parent="uSDLY-LQ0ai2ZPb-gKgt-1" vertex="1">
          <mxGeometry x="434.75" y="355" width="180" height="50" as="geometry" />
        </mxCell>
        <mxCell id="vDPD3AiG6hyJDihCyzxz-6" value="&amp;lt;inc&amp;gt;" style="text;html=1;align=center;verticalAlign=middle;resizable=0;points=[];autosize=1;" parent="uSDLY-LQ0ai2ZPb-gKgt-1" vertex="1">
          <mxGeometry x="474.75" y="220" width="40" height="20" as="geometry" />
        </mxCell>
        <mxCell id="vDPD3AiG6hyJDihCyzxz-7" value="&amp;lt;inc&amp;gt;" style="text;html=1;align=center;verticalAlign=middle;resizable=0;points=[];autosize=1;" parent="uSDLY-LQ0ai2ZPb-gKgt-1" vertex="1">
          <mxGeometry x="305.75" y="300" width="40" height="20" as="geometry" />
        </mxCell>
        <mxCell id="vDPD3AiG6hyJDihCyzxz-8" value="Создать отчет о выгоде той или иной доп. услг" style="ellipse;whiteSpace=wrap;html=1;" parent="uSDLY-LQ0ai2ZPb-gKgt-1" vertex="1">
          <mxGeometry x="254.75" y="120" width="180" height="50" as="geometry" />
        </mxCell>
        <mxCell id="vDPD3AiG6hyJDihCyzxz-10" value="&amp;lt;inc&amp;gt;" style="text;html=1;align=center;verticalAlign=middle;resizable=0;points=[];autosize=1;" parent="uSDLY-LQ0ai2ZPb-gKgt-1" vertex="1">
          <mxGeometry x="294.75" y="170" width="40" height="20" as="geometry" />
        </mxCell>
        <mxCell id="cEMCs7q33dmRLzaOVxJ8-3" value="&amp;lt;inc&amp;gt;" style="text;html=1;align=center;verticalAlign=middle;resizable=0;points=[];autosize=1;" parent="uSDLY-LQ0ai2ZPb-gKgt-1" vertex="1">
          <mxGeometry x="-224.75" y="470" width="40" height="20" as="geometry" />
        </mxCell>
        <mxCell id="cEMCs7q33dmRLzaOVxJ8-5" value="&amp;lt;extd&amp;gt;" style="text;html=1;strokeColor=none;fillColor=none;align=center;verticalAlign=middle;whiteSpace=wrap;rounded=0;" parent="uSDLY-LQ0ai2ZPb-gKgt-1" vertex="1">
          <mxGeometry x="120" y="310" width="30" height="25" as="geometry" />
        </mxCell>
        <mxCell id="cEMCs7q33dmRLzaOVxJ8-6" value="Удаление неактуальных &lt;br&gt;данных" style="ellipse;whiteSpace=wrap;html=1;" parent="uSDLY-LQ0ai2ZPb-gKgt-1" vertex="1">
          <mxGeometry x="-270.25" y="335" width="131" height="60" as="geometry" />
        </mxCell>
        <mxCell id="cEMCs7q33dmRLzaOVxJ8-8" value="&amp;lt;inc&amp;gt;" style="text;html=1;align=center;verticalAlign=middle;resizable=0;points=[];autosize=1;" parent="uSDLY-LQ0ai2ZPb-gKgt-1" vertex="1">
          <mxGeometry x="-169.75" y="420" width="40" height="20" as="geometry" />
        </mxCell>
      </root>
    </mxGraphModel>
  </diagram>
  <diagram id="hxCHFGuae4hqPbmwTH11" name="НЕНУЖНЫЙ">
    <mxGraphModel dx="1851" dy="1761" grid="1" gridSize="10" guides="1" tooltips="1" connect="1" arrows="1" fold="1" page="1" pageScale="1" pageWidth="827" pageHeight="1169" math="0" shadow="0">
      <root>
        <mxCell id="wl0NjP5f68p2L_yGsMYp-0" />
        <mxCell id="wl0NjP5f68p2L_yGsMYp-1" parent="wl0NjP5f68p2L_yGsMYp-0" />
        <mxCell id="wl0NjP5f68p2L_yGsMYp-2" value="СУБД" style="shape=umlActor;verticalLabelPosition=bottom;verticalAlign=top;html=1;outlineConnect=0;" parent="wl0NjP5f68p2L_yGsMYp-1" vertex="1">
          <mxGeometry x="737.25" y="-190" width="30" height="60" as="geometry" />
        </mxCell>
        <mxCell id="wl0NjP5f68p2L_yGsMYp-3" value="Изменение статуса бронирования" style="ellipse;whiteSpace=wrap;html=1;" parent="wl0NjP5f68p2L_yGsMYp-1" vertex="1">
          <mxGeometry x="353" y="30" width="121" height="60" as="geometry" />
        </mxCell>
        <mxCell id="wl0NjP5f68p2L_yGsMYp-4" value="" style="endArrow=none;html=1;shadow=0;strokeColor=#000000;exitX=0.5;exitY=0;exitDx=0;exitDy=0;" parent="wl0NjP5f68p2L_yGsMYp-1" source="wl0NjP5f68p2L_yGsMYp-3" target="wl0NjP5f68p2L_yGsMYp-2" edge="1">
          <mxGeometry width="50" height="50" relative="1" as="geometry">
            <mxPoint x="490" y="130" as="sourcePoint" />
            <mxPoint x="540" y="80" as="targetPoint" />
          </mxGeometry>
        </mxCell>
        <mxCell id="wl0NjP5f68p2L_yGsMYp-5" value="Добавить в счет" style="ellipse;whiteSpace=wrap;html=1;" parent="wl0NjP5f68p2L_yGsMYp-1" vertex="1">
          <mxGeometry x="474" y="-510" width="120" height="60" as="geometry" />
        </mxCell>
        <mxCell id="wl0NjP5f68p2L_yGsMYp-6" value="Предоставить список всех клиентов" style="ellipse;whiteSpace=wrap;html=1;" parent="wl0NjP5f68p2L_yGsMYp-1" vertex="1">
          <mxGeometry x="410" y="-350" width="135" height="90" as="geometry" />
        </mxCell>
        <mxCell id="wl0NjP5f68p2L_yGsMYp-7" value="" style="endArrow=none;html=1;shadow=0;strokeColor=#000000;" parent="wl0NjP5f68p2L_yGsMYp-1" source="wl0NjP5f68p2L_yGsMYp-2" target="wl0NjP5f68p2L_yGsMYp-6" edge="1">
          <mxGeometry width="50" height="50" relative="1" as="geometry">
            <mxPoint x="535" y="170" as="sourcePoint" />
            <mxPoint x="560.5" as="targetPoint" />
          </mxGeometry>
        </mxCell>
        <mxCell id="wl0NjP5f68p2L_yGsMYp-8" value="" style="endArrow=none;html=1;shadow=0;strokeColor=#000000;entryX=1;entryY=0.5;entryDx=0;entryDy=0;exitX=0;exitY=0.3333333333333333;exitDx=0;exitDy=0;exitPerimeter=0;" parent="wl0NjP5f68p2L_yGsMYp-1" source="wl0NjP5f68p2L_yGsMYp-2" target="wl0NjP5f68p2L_yGsMYp-5" edge="1">
          <mxGeometry width="50" height="50" relative="1" as="geometry">
            <mxPoint x="580" y="-57.03415516071368" as="sourcePoint" />
            <mxPoint x="644.212505602806" y="-172.76287780901066" as="targetPoint" />
          </mxGeometry>
        </mxCell>
        <mxCell id="wl0NjP5f68p2L_yGsMYp-9" value="Клиент" style="shape=umlActor;verticalLabelPosition=bottom;verticalAlign=top;html=1;outlineConnect=0;" parent="wl0NjP5f68p2L_yGsMYp-1" vertex="1">
          <mxGeometry x="-140" y="200" width="30" height="60" as="geometry" />
        </mxCell>
        <mxCell id="wl0NjP5f68p2L_yGsMYp-10" value="Поставить оценку" style="ellipse;whiteSpace=wrap;html=1;shadow=0;" parent="wl0NjP5f68p2L_yGsMYp-1" vertex="1">
          <mxGeometry x="-68" y="425" width="90" height="60" as="geometry" />
        </mxCell>
        <mxCell id="wl0NjP5f68p2L_yGsMYp-11" style="edgeStyle=none;rounded=0;orthogonalLoop=1;jettySize=auto;html=1;dashed=1;dashPattern=1 1;" parent="wl0NjP5f68p2L_yGsMYp-1" source="wl0NjP5f68p2L_yGsMYp-13" target="wl0NjP5f68p2L_yGsMYp-14" edge="1">
          <mxGeometry relative="1" as="geometry" />
        </mxCell>
        <mxCell id="wl0NjP5f68p2L_yGsMYp-12" style="edgeStyle=none;rounded=0;orthogonalLoop=1;jettySize=auto;html=1;dashed=1;dashPattern=1 1;" parent="wl0NjP5f68p2L_yGsMYp-1" source="wl0NjP5f68p2L_yGsMYp-13" target="wl0NjP5f68p2L_yGsMYp-10" edge="1">
          <mxGeometry relative="1" as="geometry" />
        </mxCell>
        <mxCell id="wl0NjP5f68p2L_yGsMYp-13" value="Написать отзыв" style="ellipse;whiteSpace=wrap;html=1;" parent="wl0NjP5f68p2L_yGsMYp-1" vertex="1">
          <mxGeometry x="-170" y="355" width="90" height="60" as="geometry" />
        </mxCell>
        <mxCell id="wl0NjP5f68p2L_yGsMYp-14" value="Написать комментарий" style="ellipse;whiteSpace=wrap;html=1;" parent="wl0NjP5f68p2L_yGsMYp-1" vertex="1">
          <mxGeometry x="-170" y="455" width="90" height="60" as="geometry" />
        </mxCell>
        <mxCell id="wl0NjP5f68p2L_yGsMYp-15" value="&amp;lt;inc&amp;gt;" style="text;html=1;strokeColor=none;fillColor=none;align=center;verticalAlign=middle;whiteSpace=wrap;rounded=0;" parent="wl0NjP5f68p2L_yGsMYp-1" vertex="1">
          <mxGeometry x="-80" y="395" width="40" height="20" as="geometry" />
        </mxCell>
        <mxCell id="wl0NjP5f68p2L_yGsMYp-16" value="&amp;lt;inc&amp;gt;" style="text;html=1;strokeColor=none;fillColor=none;align=center;verticalAlign=middle;whiteSpace=wrap;rounded=0;" parent="wl0NjP5f68p2L_yGsMYp-1" vertex="1">
          <mxGeometry x="-160" y="420" width="40" height="20" as="geometry" />
        </mxCell>
        <mxCell id="wl0NjP5f68p2L_yGsMYp-17" style="edgeStyle=none;rounded=0;orthogonalLoop=1;jettySize=auto;html=1;dashed=1;dashPattern=1 1;" parent="wl0NjP5f68p2L_yGsMYp-1" source="wl0NjP5f68p2L_yGsMYp-19" target="wl0NjP5f68p2L_yGsMYp-20" edge="1">
          <mxGeometry relative="1" as="geometry" />
        </mxCell>
        <mxCell id="wl0NjP5f68p2L_yGsMYp-18" style="edgeStyle=none;rounded=0;orthogonalLoop=1;jettySize=auto;html=1;dashed=1;dashPattern=1 1;" parent="wl0NjP5f68p2L_yGsMYp-1" source="wl0NjP5f68p2L_yGsMYp-19" target="wl0NjP5f68p2L_yGsMYp-21" edge="1">
          <mxGeometry relative="1" as="geometry" />
        </mxCell>
        <mxCell id="wl0NjP5f68p2L_yGsMYp-19" value="Выселиться" style="ellipse;whiteSpace=wrap;html=1;" parent="wl0NjP5f68p2L_yGsMYp-1" vertex="1">
          <mxGeometry x="22" y="340" width="75" height="50" as="geometry" />
        </mxCell>
        <mxCell id="wl0NjP5f68p2L_yGsMYp-20" value="Оповестить администратора" style="ellipse;whiteSpace=wrap;html=1;" parent="wl0NjP5f68p2L_yGsMYp-1" vertex="1">
          <mxGeometry x="97" y="410" width="111" height="60" as="geometry" />
        </mxCell>
        <mxCell id="wl0NjP5f68p2L_yGsMYp-21" value="Получить счет" style="ellipse;whiteSpace=wrap;html=1;" parent="wl0NjP5f68p2L_yGsMYp-1" vertex="1">
          <mxGeometry x="143" y="350" width="74" height="40" as="geometry" />
        </mxCell>
        <mxCell id="wl0NjP5f68p2L_yGsMYp-22" value="&amp;lt;inc&amp;gt;" style="text;html=1;strokeColor=none;fillColor=none;align=center;verticalAlign=middle;whiteSpace=wrap;rounded=0;" parent="wl0NjP5f68p2L_yGsMYp-1" vertex="1">
          <mxGeometry x="65.75" y="400" width="40" height="20" as="geometry" />
        </mxCell>
        <mxCell id="wl0NjP5f68p2L_yGsMYp-23" value="&amp;lt;inc&amp;gt;" style="text;html=1;strokeColor=none;fillColor=none;align=center;verticalAlign=middle;whiteSpace=wrap;rounded=0;" parent="wl0NjP5f68p2L_yGsMYp-1" vertex="1">
          <mxGeometry x="97" y="340" width="40" height="20" as="geometry" />
        </mxCell>
        <mxCell id="wl0NjP5f68p2L_yGsMYp-24" style="edgeStyle=none;rounded=0;orthogonalLoop=1;jettySize=auto;html=1;dashed=1;dashPattern=1 1;" parent="wl0NjP5f68p2L_yGsMYp-1" source="wl0NjP5f68p2L_yGsMYp-26" target="wl0NjP5f68p2L_yGsMYp-27" edge="1">
          <mxGeometry relative="1" as="geometry" />
        </mxCell>
        <mxCell id="wl0NjP5f68p2L_yGsMYp-25" style="edgeStyle=none;rounded=0;orthogonalLoop=1;jettySize=auto;html=1;dashed=1;dashPattern=1 1;" parent="wl0NjP5f68p2L_yGsMYp-1" source="wl0NjP5f68p2L_yGsMYp-26" target="wl0NjP5f68p2L_yGsMYp-28" edge="1">
          <mxGeometry relative="1" as="geometry" />
        </mxCell>
        <mxCell id="wl0NjP5f68p2L_yGsMYp-26" value="Заселиться в гостиницу" style="ellipse;whiteSpace=wrap;html=1;" parent="wl0NjP5f68p2L_yGsMYp-1" vertex="1">
          <mxGeometry x="250" y="320" width="90" height="60" as="geometry" />
        </mxCell>
        <mxCell id="wl0NjP5f68p2L_yGsMYp-27" value="Зарегистрировать&lt;br&gt;постояльца" style="ellipse;whiteSpace=wrap;html=1;" parent="wl0NjP5f68p2L_yGsMYp-1" vertex="1">
          <mxGeometry x="400" y="350" width="121" height="60" as="geometry" />
        </mxCell>
        <mxCell id="wl0NjP5f68p2L_yGsMYp-28" value="Приехать в гостиницу" style="ellipse;whiteSpace=wrap;html=1;" parent="wl0NjP5f68p2L_yGsMYp-1" vertex="1">
          <mxGeometry x="300" y="420" width="90" height="60" as="geometry" />
        </mxCell>
        <mxCell id="wl0NjP5f68p2L_yGsMYp-29" value="&amp;lt;inc&amp;gt;" style="text;html=1;strokeColor=none;fillColor=none;align=center;verticalAlign=middle;whiteSpace=wrap;rounded=0;" parent="wl0NjP5f68p2L_yGsMYp-1" vertex="1">
          <mxGeometry x="275" y="390" width="40" height="20" as="geometry" />
        </mxCell>
        <mxCell id="wl0NjP5f68p2L_yGsMYp-30" value="&amp;lt;inc&amp;gt;" style="text;html=1;strokeColor=none;fillColor=none;align=center;verticalAlign=middle;whiteSpace=wrap;rounded=0;" parent="wl0NjP5f68p2L_yGsMYp-1" vertex="1">
          <mxGeometry x="360" y="340" width="40" height="20" as="geometry" />
        </mxCell>
        <mxCell id="wl0NjP5f68p2L_yGsMYp-31" value="Посмотреть &lt;br&gt;свободные номера" style="ellipse;whiteSpace=wrap;html=1;" parent="wl0NjP5f68p2L_yGsMYp-1" vertex="1">
          <mxGeometry x="460" y="-210" width="140" height="70" as="geometry" />
        </mxCell>
        <mxCell id="wl0NjP5f68p2L_yGsMYp-32" style="edgeStyle=none;rounded=0;orthogonalLoop=1;jettySize=auto;html=1;dashed=1;dashPattern=1 1;" parent="wl0NjP5f68p2L_yGsMYp-1" source="wl0NjP5f68p2L_yGsMYp-33" target="wl0NjP5f68p2L_yGsMYp-37" edge="1">
          <mxGeometry relative="1" as="geometry" />
        </mxCell>
        <mxCell id="wl0NjP5f68p2L_yGsMYp-33" value="Оплатить номер" style="ellipse;whiteSpace=wrap;html=1;" parent="wl0NjP5f68p2L_yGsMYp-1" vertex="1">
          <mxGeometry x="177" y="-330" width="140" height="70" as="geometry" />
        </mxCell>
        <mxCell id="wl0NjP5f68p2L_yGsMYp-34" value="Получить договор" style="ellipse;whiteSpace=wrap;html=1;" parent="wl0NjP5f68p2L_yGsMYp-1" vertex="1">
          <mxGeometry x="620" y="95" width="97.5" height="65" as="geometry" />
        </mxCell>
        <mxCell id="wl0NjP5f68p2L_yGsMYp-35" style="edgeStyle=none;rounded=0;orthogonalLoop=1;jettySize=auto;html=1;dashed=1;dashPattern=1 1;" parent="wl0NjP5f68p2L_yGsMYp-1" source="wl0NjP5f68p2L_yGsMYp-36" target="wl0NjP5f68p2L_yGsMYp-42" edge="1">
          <mxGeometry relative="1" as="geometry" />
        </mxCell>
        <mxCell id="wl0NjP5f68p2L_yGsMYp-36" value="Воспользоваться скидочным предложением" style="ellipse;whiteSpace=wrap;html=1;" parent="wl0NjP5f68p2L_yGsMYp-1" vertex="1">
          <mxGeometry x="80" y="-85" width="120" height="80" as="geometry" />
        </mxCell>
        <mxCell id="wl0NjP5f68p2L_yGsMYp-37" value="Добавить в счет" style="ellipse;whiteSpace=wrap;html=1;" parent="wl0NjP5f68p2L_yGsMYp-1" vertex="1">
          <mxGeometry x="57" y="-160" width="120" height="60" as="geometry" />
        </mxCell>
        <mxCell id="wl0NjP5f68p2L_yGsMYp-38" style="edgeStyle=none;rounded=0;orthogonalLoop=1;jettySize=auto;html=1;dashed=1;dashPattern=1 1;" parent="wl0NjP5f68p2L_yGsMYp-1" source="wl0NjP5f68p2L_yGsMYp-42" target="wl0NjP5f68p2L_yGsMYp-43" edge="1">
          <mxGeometry relative="1" as="geometry" />
        </mxCell>
        <mxCell id="wl0NjP5f68p2L_yGsMYp-39" style="edgeStyle=none;rounded=0;orthogonalLoop=1;jettySize=auto;html=1;dashed=1;dashPattern=1 1;" parent="wl0NjP5f68p2L_yGsMYp-1" source="wl0NjP5f68p2L_yGsMYp-42" target="wl0NjP5f68p2L_yGsMYp-34" edge="1">
          <mxGeometry relative="1" as="geometry" />
        </mxCell>
        <mxCell id="wl0NjP5f68p2L_yGsMYp-40" style="edgeStyle=none;rounded=0;orthogonalLoop=1;jettySize=auto;html=1;dashed=1;dashPattern=1 1;" parent="wl0NjP5f68p2L_yGsMYp-1" source="wl0NjP5f68p2L_yGsMYp-42" target="wl0NjP5f68p2L_yGsMYp-31" edge="1">
          <mxGeometry relative="1" as="geometry" />
        </mxCell>
        <mxCell id="wl0NjP5f68p2L_yGsMYp-41" style="edgeStyle=none;rounded=0;orthogonalLoop=1;jettySize=auto;html=1;dashed=1;dashPattern=1 1;" parent="wl0NjP5f68p2L_yGsMYp-1" source="wl0NjP5f68p2L_yGsMYp-42" target="wl0NjP5f68p2L_yGsMYp-33" edge="1">
          <mxGeometry relative="1" as="geometry" />
        </mxCell>
        <mxCell id="wl0NjP5f68p2L_yGsMYp-42" value="Заключить договор" style="ellipse;whiteSpace=wrap;html=1;" parent="wl0NjP5f68p2L_yGsMYp-1" vertex="1">
          <mxGeometry x="200" y="20" width="121" height="60" as="geometry" />
        </mxCell>
        <mxCell id="wl0NjP5f68p2L_yGsMYp-43" value="Указать персональные данные постояльцев" style="ellipse;whiteSpace=wrap;html=1;" parent="wl0NjP5f68p2L_yGsMYp-1" vertex="1">
          <mxGeometry x="620" y="5" width="147.25" height="70" as="geometry" />
        </mxCell>
        <mxCell id="wl0NjP5f68p2L_yGsMYp-44" style="edgeStyle=none;rounded=0;orthogonalLoop=1;jettySize=auto;html=1;dashed=1;dashPattern=1 1;" parent="wl0NjP5f68p2L_yGsMYp-1" source="wl0NjP5f68p2L_yGsMYp-46" target="wl0NjP5f68p2L_yGsMYp-47" edge="1">
          <mxGeometry relative="1" as="geometry" />
        </mxCell>
        <mxCell id="wl0NjP5f68p2L_yGsMYp-45" style="edgeStyle=none;rounded=0;orthogonalLoop=1;jettySize=auto;html=1;dashed=1;dashPattern=1 1;" parent="wl0NjP5f68p2L_yGsMYp-1" source="wl0NjP5f68p2L_yGsMYp-46" target="wl0NjP5f68p2L_yGsMYp-54" edge="1">
          <mxGeometry relative="1" as="geometry" />
        </mxCell>
        <mxCell id="wl0NjP5f68p2L_yGsMYp-46" value="Расторгнуть договор" style="ellipse;whiteSpace=wrap;html=1;" parent="wl0NjP5f68p2L_yGsMYp-1" vertex="1">
          <mxGeometry x="217" y="160" width="121" height="60" as="geometry" />
        </mxCell>
        <mxCell id="wl0NjP5f68p2L_yGsMYp-47" value="Изменение статуса бронирования" style="ellipse;whiteSpace=wrap;html=1;" parent="wl0NjP5f68p2L_yGsMYp-1" vertex="1">
          <mxGeometry x="378.75" y="140" width="121" height="60" as="geometry" />
        </mxCell>
        <mxCell id="wl0NjP5f68p2L_yGsMYp-48" style="edgeStyle=none;rounded=0;orthogonalLoop=1;jettySize=auto;html=1;entryX=0.107;entryY=0.89;entryDx=0;entryDy=0;entryPerimeter=0;dashed=1;dashPattern=1 1;" parent="wl0NjP5f68p2L_yGsMYp-1" source="wl0NjP5f68p2L_yGsMYp-51" target="wl0NjP5f68p2L_yGsMYp-52" edge="1">
          <mxGeometry relative="1" as="geometry" />
        </mxCell>
        <mxCell id="wl0NjP5f68p2L_yGsMYp-49" style="edgeStyle=none;rounded=0;orthogonalLoop=1;jettySize=auto;html=1;dashed=1;dashPattern=1 1;" parent="wl0NjP5f68p2L_yGsMYp-1" source="wl0NjP5f68p2L_yGsMYp-51" target="wl0NjP5f68p2L_yGsMYp-53" edge="1">
          <mxGeometry relative="1" as="geometry" />
        </mxCell>
        <mxCell id="wl0NjP5f68p2L_yGsMYp-50" style="edgeStyle=none;rounded=0;orthogonalLoop=1;jettySize=auto;html=1;dashed=1;dashPattern=1 1;" parent="wl0NjP5f68p2L_yGsMYp-1" source="wl0NjP5f68p2L_yGsMYp-51" target="wl0NjP5f68p2L_yGsMYp-37" edge="1">
          <mxGeometry relative="1" as="geometry" />
        </mxCell>
        <mxCell id="wl0NjP5f68p2L_yGsMYp-51" value="Воспользоваться доп. услугой" style="ellipse;whiteSpace=wrap;html=1;" parent="wl0NjP5f68p2L_yGsMYp-1" vertex="1">
          <mxGeometry x="-150" y="10" width="140" height="70" as="geometry" />
        </mxCell>
        <mxCell id="wl0NjP5f68p2L_yGsMYp-52" value="Посмотреть список доп.&lt;br&gt;услуг&lt;span style=&quot;color: rgba(0 , 0 , 0 , 0) ; font-family: monospace ; font-size: 0px&quot;&gt;%3CmxGraphModel%3E%3Croot%3E%3CmxCell%20id%3D%220%22%2F%3E%3CmxCell%20id%3D%221%22%20parent%3D%220%22%2F%3E%3CmxCell%20id%3D%222%22%20value%3D%22%D0%9F%D1%80%D0%B8%D0%BE%D0%B1%D1%80%D0%B5%D1%81%D1%82%D0%B8%20%D0%B4%D0%BE%D0%BF.%26lt%3Bbr%26gt%3B%D1%83%D1%81%D0%BB%D1%83%D0%B3%D1%83%22%20style%3D%22ellipse%3BwhiteSpace%3Dwrap%3Bhtml%3D1%3B%22%20vertex%3D%221%22%20parent%3D%221%22%3E%3CmxGeometry%20x%3D%22100%22%20y%3D%22-180%22%20width%3D%22140%22%20height%3D%2270%22%20as%3D%22geometry%22%2F%3E%3C%2FmxCell%3E%3C%2Froot%3E%3C%2FmxGraphModel%3E&lt;/span&gt;" style="ellipse;whiteSpace=wrap;html=1;" parent="wl0NjP5f68p2L_yGsMYp-1" vertex="1">
          <mxGeometry x="-170" y="-200" width="140" height="70" as="geometry" />
        </mxCell>
        <mxCell id="wl0NjP5f68p2L_yGsMYp-53" value="Купить доп. услугу" style="ellipse;whiteSpace=wrap;html=1;" parent="wl0NjP5f68p2L_yGsMYp-1" vertex="1">
          <mxGeometry x="-45" y="-280" width="140" height="70" as="geometry" />
        </mxCell>
        <mxCell id="wl0NjP5f68p2L_yGsMYp-54" value="Указать причину расторжения" style="ellipse;whiteSpace=wrap;html=1;" parent="wl0NjP5f68p2L_yGsMYp-1" vertex="1">
          <mxGeometry x="363.25" y="230" width="121" height="60" as="geometry" />
        </mxCell>
        <mxCell id="wl0NjP5f68p2L_yGsMYp-55" value="&amp;lt;inc&amp;gt;" style="text;html=1;strokeColor=none;fillColor=none;align=center;verticalAlign=middle;whiteSpace=wrap;rounded=0;" parent="wl0NjP5f68p2L_yGsMYp-1" vertex="1">
          <mxGeometry x="-70" y="-80" width="40" height="20" as="geometry" />
        </mxCell>
        <mxCell id="wl0NjP5f68p2L_yGsMYp-56" value="&amp;lt;inc&amp;gt;" style="text;html=1;strokeColor=none;fillColor=none;align=center;verticalAlign=middle;whiteSpace=wrap;rounded=0;" parent="wl0NjP5f68p2L_yGsMYp-1" vertex="1">
          <mxGeometry x="-160" y="-70" width="35" height="20" as="geometry" />
        </mxCell>
        <mxCell id="wl0NjP5f68p2L_yGsMYp-57" value="&amp;lt;inc&amp;gt;" style="text;html=1;strokeColor=none;fillColor=none;align=center;verticalAlign=middle;whiteSpace=wrap;rounded=0;" parent="wl0NjP5f68p2L_yGsMYp-1" vertex="1">
          <mxGeometry x="-10" y="-75" width="40" height="20" as="geometry" />
        </mxCell>
        <mxCell id="wl0NjP5f68p2L_yGsMYp-58" value="&amp;lt;inc&amp;gt;" style="text;html=1;strokeColor=none;fillColor=none;align=center;verticalAlign=middle;whiteSpace=wrap;rounded=0;" parent="wl0NjP5f68p2L_yGsMYp-1" vertex="1">
          <mxGeometry x="331.25" y="150" width="40" height="20" as="geometry" />
        </mxCell>
        <mxCell id="wl0NjP5f68p2L_yGsMYp-59" value="&amp;lt;inc&amp;gt;" style="text;html=1;strokeColor=none;fillColor=none;align=center;verticalAlign=middle;whiteSpace=wrap;rounded=0;" parent="wl0NjP5f68p2L_yGsMYp-1" vertex="1">
          <mxGeometry x="314.25" y="230" width="40" height="20" as="geometry" />
        </mxCell>
        <mxCell id="wl0NjP5f68p2L_yGsMYp-60" value="&amp;lt;inc&amp;gt;" style="text;html=1;strokeColor=none;fillColor=none;align=center;verticalAlign=middle;whiteSpace=wrap;rounded=0;" parent="wl0NjP5f68p2L_yGsMYp-1" vertex="1">
          <mxGeometry x="410" y="30" width="40" height="20" as="geometry" />
        </mxCell>
        <mxCell id="wl0NjP5f68p2L_yGsMYp-61" value="&amp;lt;inc&amp;gt;" style="text;html=1;strokeColor=none;fillColor=none;align=center;verticalAlign=middle;whiteSpace=wrap;rounded=0;" parent="wl0NjP5f68p2L_yGsMYp-1" vertex="1">
          <mxGeometry x="410" y="-10" width="40" height="20" as="geometry" />
        </mxCell>
        <mxCell id="wl0NjP5f68p2L_yGsMYp-62" value="&amp;lt;inc&amp;gt;" style="text;html=1;strokeColor=none;fillColor=none;align=center;verticalAlign=middle;whiteSpace=wrap;rounded=0;" parent="wl0NjP5f68p2L_yGsMYp-1" vertex="1">
          <mxGeometry x="390" y="-55" width="40" height="20" as="geometry" />
        </mxCell>
        <mxCell id="wl0NjP5f68p2L_yGsMYp-63" value="&amp;lt;inc&amp;gt;" style="text;html=1;strokeColor=none;fillColor=none;align=center;verticalAlign=middle;whiteSpace=wrap;rounded=0;" parent="wl0NjP5f68p2L_yGsMYp-1" vertex="1">
          <mxGeometry x="305" y="-35" width="30" height="25" as="geometry" />
        </mxCell>
        <mxCell id="wl0NjP5f68p2L_yGsMYp-64" value="&amp;lt;inc&amp;gt;" style="text;html=1;strokeColor=none;fillColor=none;align=center;verticalAlign=middle;whiteSpace=wrap;rounded=0;" parent="wl0NjP5f68p2L_yGsMYp-1" vertex="1">
          <mxGeometry x="208" y="-140" width="30" height="25" as="geometry" />
        </mxCell>
        <mxCell id="wl0NjP5f68p2L_yGsMYp-65" value="&amp;lt;extd&amp;gt;" style="text;html=1;strokeColor=none;fillColor=none;align=center;verticalAlign=middle;whiteSpace=wrap;rounded=0;" parent="wl0NjP5f68p2L_yGsMYp-1" vertex="1">
          <mxGeometry x="214" y="-12.5" width="30" height="25" as="geometry" />
        </mxCell>
        <mxCell id="wl0NjP5f68p2L_yGsMYp-66" value="" style="endArrow=none;html=1;entryX=0;entryY=0.5;entryDx=0;entryDy=0;exitX=1;exitY=0.3333333333333333;exitDx=0;exitDy=0;exitPerimeter=0;" parent="wl0NjP5f68p2L_yGsMYp-1" source="wl0NjP5f68p2L_yGsMYp-9" target="wl0NjP5f68p2L_yGsMYp-42" edge="1">
          <mxGeometry width="50" height="50" relative="1" as="geometry">
            <mxPoint x="-20" y="130" as="sourcePoint" />
            <mxPoint x="30" y="80" as="targetPoint" />
          </mxGeometry>
        </mxCell>
        <mxCell id="wl0NjP5f68p2L_yGsMYp-67" value="" style="endArrow=none;html=1;exitX=0.5;exitY=0;exitDx=0;exitDy=0;exitPerimeter=0;entryX=0.5;entryY=1;entryDx=0;entryDy=0;" parent="wl0NjP5f68p2L_yGsMYp-1" source="wl0NjP5f68p2L_yGsMYp-9" target="wl0NjP5f68p2L_yGsMYp-51" edge="1">
          <mxGeometry width="50" height="50" relative="1" as="geometry">
            <mxPoint x="-100" y="230" as="sourcePoint" />
            <mxPoint x="-40" y="-100" as="targetPoint" />
          </mxGeometry>
        </mxCell>
        <mxCell id="wl0NjP5f68p2L_yGsMYp-68" value="" style="endArrow=none;html=1;" parent="wl0NjP5f68p2L_yGsMYp-1" source="wl0NjP5f68p2L_yGsMYp-9" target="wl0NjP5f68p2L_yGsMYp-26" edge="1">
          <mxGeometry width="50" height="50" relative="1" as="geometry">
            <mxPoint x="-100" y="230" as="sourcePoint" />
            <mxPoint x="210" y="60" as="targetPoint" />
          </mxGeometry>
        </mxCell>
        <mxCell id="wl0NjP5f68p2L_yGsMYp-69" value="" style="endArrow=none;html=1;" parent="wl0NjP5f68p2L_yGsMYp-1" source="wl0NjP5f68p2L_yGsMYp-9" target="wl0NjP5f68p2L_yGsMYp-19" edge="1">
          <mxGeometry width="50" height="50" relative="1" as="geometry">
            <mxPoint x="-100" y="236.18503955126357" as="sourcePoint" />
            <mxPoint x="78.7264461736695" y="190.72941799821206" as="targetPoint" />
          </mxGeometry>
        </mxCell>
        <mxCell id="wl0NjP5f68p2L_yGsMYp-70" value="" style="endArrow=none;html=1;" parent="wl0NjP5f68p2L_yGsMYp-1" source="wl0NjP5f68p2L_yGsMYp-9" target="wl0NjP5f68p2L_yGsMYp-13" edge="1">
          <mxGeometry width="50" height="50" relative="1" as="geometry">
            <mxPoint x="-102.14" y="289.47088768087315" as="sourcePoint" />
            <mxPoint x="42.14159280724709" y="394.99736428792585" as="targetPoint" />
          </mxGeometry>
        </mxCell>
        <mxCell id="wl0NjP5f68p2L_yGsMYp-71" value="" style="endArrow=none;html=1;entryX=0.025;entryY=0.387;entryDx=0;entryDy=0;entryPerimeter=0;" parent="wl0NjP5f68p2L_yGsMYp-1" source="wl0NjP5f68p2L_yGsMYp-9" target="wl0NjP5f68p2L_yGsMYp-46" edge="1">
          <mxGeometry width="50" height="50" relative="1" as="geometry">
            <mxPoint x="-70" y="210" as="sourcePoint" />
            <mxPoint x="210" y="60" as="targetPoint" />
          </mxGeometry>
        </mxCell>
      </root>
    </mxGraphModel>
  </diagram>
</mxfile>
